<svg xmlns="http://www.w3.org/2000/svg" version="1.1" xmlns:xlink="http://www.w3.org/1999/xlink" xmlns:svgjs="http://svgjs.com/svgjs" width="512" height="512" x="0" y="0" viewBox="0 0 512 512" style="enable-background:new 0 0 512 512" xml:space="preserve" className=""><g><path xmlns="http://www.w3.org/2000/svg" d="m351.45 267.13h-211.969c-19.422 0-35.167-15.745-35.167-35.167v-151.257c0-19.422 15.745-35.167 35.167-35.167h211.969c19.422 0 35.167 15.745 35.167 35.167v151.257c0 19.422-15.745 35.167-35.167 35.167z" fill="#fea613" data-original="#fea613" className=""></path><path xmlns="http://www.w3.org/2000/svg" d="m386.618 80.701v151.262c0 19.424-15.745 35.169-35.169 35.169h-23.263c19.424 0 35.169-15.745 35.169-35.169v-151.262c0-19.414-15.745-35.159-35.169-35.159h23.263c19.424.001 35.169 15.746 35.169 35.159z" fill="#fe9901" data-original="#fe9901"></path><path xmlns="http://www.w3.org/2000/svg" d="m257.367 136.397h211.968c19.422 0 35.167 15.745 35.167 35.167v151.257c0 19.422-15.745 35.167-35.167 35.167h.939c-5.165 0-9.5 3.94-9.934 9.087-.556 6.598-.664 15.854 1.576 24.539 1.057 4.1-3.235 7.585-7.047 5.742-9.519-4.602-23.055-14.182-30.932-33.264-1.53-3.708-5.176-6.105-9.187-6.105h-157.383c-19.422 0-35.167-15.745-35.167-35.167v-151.256c0-19.422 15.745-35.167 35.167-35.167z" fill="#68ca44" data-original="#68ca44"></path><path xmlns="http://www.w3.org/2000/svg" d="m504.5 171.562v151.262c0 19.424-15.745 35.169-35.169 35.169h.94c-5.159 0-9.497 3.939-9.927 9.077-.56 6.598-.67 15.855 1.57 24.542 1.06 4.099-3.229 7.588-7.048 5.748-5.048-2.449-11.236-6.288-17.104-12.216 1.14-1.16 1.709-2.849 1.25-4.668-2.249-8.677-2.139-17.934-1.58-24.532.43-5.148 4.768-9.087 9.937-9.087h-.94c19.424 0 35.169-15.745 35.169-35.169v-151.262c0-9.237-3.559-17.634-9.387-23.912 18.074 1.459 32.289 16.594 32.289 35.048z" fill="#4fc123" data-original="#4fc123"></path><path xmlns="http://www.w3.org/2000/svg" d="m254.633 204.987h-211.969c-19.422 0-35.167 15.745-35.167 35.167v151.256c0 19.422 15.745 35.167 35.167 35.167h-.939c5.165 0 9.5 3.94 9.934 9.087.556 6.598.664 15.854-1.576 24.539-1.057 4.1 3.235 7.585 7.047 5.742 9.519-4.602 23.055-14.182 30.932-33.264 1.53-3.708 5.176-6.105 9.187-6.105h157.384c19.422 0 35.167-15.745 35.167-35.167v-151.255c0-19.422-15.745-35.167-35.167-35.167z" fill="#f3eae6" data-original="#f3eae6" className=""></path><path xmlns="http://www.w3.org/2000/svg" d="m289.8 240.145v151.262c0 19.424-15.745 35.169-35.169 35.169h-23.263c19.424 0 35.169-15.745 35.169-35.169v-151.262c0-19.414-15.745-35.159-35.169-35.159h23.263c19.424.001 35.169 15.746 35.169 35.159z" fill="#e8dcd9" data-original="#e8dcd9"></path><path xmlns="http://www.w3.org/2000/svg" d="m220.898 269.894c-14.254-19.816-42.2-22.967-60.88-5.622-4.593 4.265-7.476 8.824-9.19 12.233-.903 1.797-3.458 1.797-4.361 0-1.713-3.409-4.596-7.968-9.19-12.233-18.68-17.345-46.626-14.194-60.88 5.622-6.255 8.696-9.101 19.382-9.189 30.012-.176 21.313 10.27 39.433 26.05 53.551 11.951 10.691 23.48 15.788 37.249 23.984.645.384 9.96 5.489 14.983 8.332 1.962 1.11 4.351 1.11 6.313 0 5.023-2.843 14.338-7.948 14.983-8.332 13.769-8.196 25.299-13.293 37.249-23.984 15.78-14.117 26.226-32.237 26.05-53.551-.086-10.63-2.932-21.316-9.187-30.012z" fill="#fb2b3a" data-original="#fb2b3a"></path><path xmlns="http://www.w3.org/2000/svg" d="m230.088 299.905c.179 21.315-10.267 39.433-26.053 53.551-11.945 10.689-23.478 15.786-37.248 23.985-.644.38-9.961 5.487-14.984 8.325-1.963 1.119-4.347 1.119-6.31 0-5.023-2.838-14.34-7.946-14.984-8.325-1.351-.802-2.691-1.583-3.999-2.332 1.625.454 3.387.264 4.896-.591 5.023-2.849 14.34-7.946 14.984-8.336 13.77-8.188 25.293-13.295 37.248-23.985 15.775-14.119 26.222-32.236 26.053-53.551-.095-10.626-2.933-21.315-9.191-30.01-1.256-1.741-2.606-3.345-4.052-4.822 9.486 2.005 18.255 7.471 24.449 16.081 6.258 8.695 9.107 19.385 9.191 30.01z" fill="#d6132b" data-original="#d6132b"></path><path xmlns="http://www.w3.org/2000/svg" d="m343.17 98.995c0-4.141-3.356-7.498-7.498-7.498h-180.413c-4.141 0-7.498 3.357-7.498 7.498s3.356 7.498 7.498 7.498h180.414c4.141 0 7.497-3.357 7.497-7.498z" fill="#000000" data-original="#000000" className=""></path><path xmlns="http://www.w3.org/2000/svg" d="m206.788 131.625c0-4.141-3.356-7.498-7.498-7.498h-44.032c-4.141 0-7.498 3.357-7.498 7.498s3.356 7.498 7.498 7.498h44.032c4.142-.001 7.498-3.358 7.498-7.498z" fill="#000000" data-original="#000000" className=""></path><path xmlns="http://www.w3.org/2000/svg" d="m155.259 153.545c-4.141 0-7.498 3.357-7.498 7.498s3.356 7.498 7.498 7.498h35.441c4.141 0 7.498-3.357 7.498-7.498s-3.356-7.498-7.498-7.498z" fill="#000000" data-original="#000000" className=""></path><path xmlns="http://www.w3.org/2000/svg" d="m453.559 175.5h-180.415c-4.141 0-7.498 3.357-7.498 7.498s3.356 7.498 7.498 7.498h180.415c4.141 0 7.498-3.357 7.498-7.498-.001-4.141-3.357-7.498-7.498-7.498z" fill="#000000" data-original="#000000" className=""></path><path xmlns="http://www.w3.org/2000/svg" d="m453.559 208.129h-131.337c-4.141 0-7.498 3.357-7.498 7.498s3.356 7.498 7.498 7.498h131.337c4.141 0 7.498-3.357 7.498-7.498s-3.357-7.498-7.498-7.498z" fill="#000000" data-original="#000000" className=""></path><path xmlns="http://www.w3.org/2000/svg" d="m453.559 240.411h-131.337c-4.141 0-7.498 3.357-7.498 7.498s3.356 7.498 7.498 7.498h131.337c4.141 0 7.498-3.357 7.498-7.498s-3.357-7.498-7.498-7.498z" fill="#000000" data-original="#000000" className=""></path><path xmlns="http://www.w3.org/2000/svg" d="m453.559 272.693h-131.337c-4.141 0-7.498 3.357-7.498 7.498s3.356 7.498 7.498 7.498h131.337c4.141 0 7.498-3.357 7.498-7.498-.001-4.141-3.357-7.498-7.498-7.498z" fill="#000000" data-original="#000000" className=""></path><path xmlns="http://www.w3.org/2000/svg" d="m322.222 317.453h80.392c4.141 0 7.498-3.357 7.498-7.498s-3.356-7.498-7.498-7.498h-80.392c-4.141 0-7.498 3.357-7.498 7.498s3.357 7.498 7.498 7.498z" fill="#000000" data-original="#000000" className=""></path><path xmlns="http://www.w3.org/2000/svg" d="m469.336 128.9h-75.222v-48.194c0-23.525-19.139-42.665-42.664-42.665h-167.427c-4.141 0-7.498 3.357-7.498 7.498s3.356 7.498 7.498 7.498h167.427c15.257 0 27.669 12.412 27.669 27.669v48.194h-121.752c-23.525 0-42.664 19.139-42.664 42.665v25.925h-102.891v-116.784c0-15.257 12.413-27.669 27.67-27.669h10.052c4.141 0 7.498-3.357 7.498-7.498s-3.356-7.498-7.498-7.498h-10.052c-23.526 0-42.665 19.139-42.665 42.665v116.783h-54.153c-23.525 0-42.664 19.14-42.664 42.665v151.256c0 22.984 18.269 41.782 41.047 42.634.223.02.449.03.677.03 1.276 0 2.359.974 2.463 2.219.485 5.756.643 14.252-1.365 22.037-1.224 4.748.382 9.638 4.192 12.76 2.311 1.893 5.099 2.867 7.921 2.867 1.845 0 3.706-.416 5.456-1.262 10.979-5.307 25.893-16.06 34.599-37.153.362-.878 1.269-1.468 2.257-1.468h157.384c23.525 0 42.664-19.139 42.664-42.665v-25.925h60.17c4.141 0 7.498-3.357 7.498-7.498s-3.356-7.498-7.498-7.498h-60.17v-110.334c0-23.525-19.139-42.665-42.664-42.665h-24.935v-25.925c0-15.257 12.412-27.669 27.669-27.669h211.969c15.257 0 27.669 12.413 27.669 27.669v151.257c0 15.257-12.412 27.669-27.669 27.669-.624 0-1.231.076-1.811.22-7.767 1.253-13.98 7.715-14.655 15.734-.476 5.656-.673 13.582.659 21.657-7.854-4.77-16.924-12.975-22.66-26.87-2.694-6.525-9.021-10.741-16.118-10.741h-22.628c-4.141 0-7.498 3.357-7.498 7.498s3.356 7.498 7.498 7.498h22.628c.988 0 1.895.59 2.257 1.467 8.706 21.094 23.62 31.847 34.599 37.154 1.751.846 3.611 1.262 5.456 1.262 2.822 0 5.611-.973 7.921-2.867 3.81-3.122 5.416-8.012 4.192-12.76-2.008-7.786-1.85-16.281-1.365-22.038.104-1.244 1.186-2.218 2.463-2.218.228 0 .455-.01.677-.03 22.779-.853 41.047-19.65 41.047-42.634v-151.258c.004-23.525-19.135-42.664-42.66-42.664zm-214.703 83.584c15.257 0 27.669 12.413 27.669 27.669v151.257c0 15.257-12.412 27.669-27.669 27.669h-157.384c-7.097 0-13.423 4.216-16.118 10.742-5.735 13.894-14.806 22.099-22.66 26.869 1.332-8.075 1.136-16 .659-21.656-.676-8.019-6.888-14.482-14.655-15.735-.58-.144-1.187-.22-1.811-.22-15.257 0-27.669-12.413-27.669-27.669v-151.256c0-15.257 12.412-27.669 27.669-27.669h211.969z" fill="#000000" data-original="#000000" className=""></path><path xmlns="http://www.w3.org/2000/svg" d="m88.261 359.045c9.507 8.505 18.688 13.656 28.409 19.109 3.228 1.81 6.565 3.682 10.008 5.731.318.189 1.116.631 4.125 2.294 3.298 1.823 7.945 4.39 10.999 6.119 2.112 1.195 4.479 1.792 6.847 1.792s4.738-.598 6.85-1.793c3.052-1.727 7.699-4.295 10.996-6.118 3.009-1.663 3.806-2.105 4.128-2.296 3.44-2.048 6.778-3.921 10.007-5.731 9.719-5.452 18.9-10.603 28.406-19.107 18.858-16.87 28.73-37.342 28.549-59.201-.107-12.967-3.772-24.837-10.6-34.329-8.089-11.245-20.512-18.471-34.085-19.825-13.911-1.385-27.4 3.261-37.983 13.087-2.512 2.333-4.583 4.742-6.269 7.026-1.687-2.283-3.757-4.693-6.269-7.025-10.391-9.651-23.653-14.318-37.324-13.149-4.126.353-7.184 3.985-6.831 8.11.354 4.126 4.008 7.187 8.11 6.83 9.411-.809 18.588 2.46 25.841 9.196 3.893 3.615 6.278 7.491 7.593 10.106 1.699 3.379 5.101 5.478 8.88 5.478 3.778 0 7.18-2.099 8.879-5.479 1.314-2.614 3.698-6.489 7.592-10.105 7.384-6.857 16.721-10.11 26.292-9.154 9.43.94 17.74 5.792 23.4 13.66 5.007 6.961 7.697 15.846 7.778 25.696.182 22.014-12.707 38.199-23.552 47.901-8.28 7.407-16.373 11.948-25.745 17.205-3.31 1.857-6.734 3.778-10.302 5.902-.343.198-1.805 1.005-3.749 2.079-3.15 1.741-7.516 4.155-10.593 5.889-3.077-1.736-7.443-4.149-10.592-5.889-1.944-1.074-3.406-1.881-3.712-2.057-3.604-2.145-7.027-4.066-10.338-5.922-9.372-5.258-17.467-9.799-25.748-17.206-10.845-9.703-23.734-25.888-23.551-47.901.081-9.851 2.771-18.736 7.777-25.696 2.418-3.361 1.654-8.047-1.708-10.465-3.36-2.418-8.047-1.654-10.464 1.708-6.828 9.49-10.493 21.361-10.6 34.329-.18 21.859 9.691 42.331 28.549 59.201z" fill="#000000" data-original="#000000" className=""></path></g></svg>