<svg xmlns="http://www.w3.org/2000/svg" version="1.1" xmlns:xlink="http://www.w3.org/1999/xlink" xmlns:svgjs="http://svgjs.com/svgjs" width="512" height="512" x="0" y="0" viewBox="0 0 512.052 512.052" style="enable-background:new 0 0 512 512" xml:space="preserve" className=""><g><g xmlns="http://www.w3.org/2000/svg"><g clip-rule="evenodd" fill-rule="evenodd"><path d="m32.455 326.871c24.738-50.579 68.797-110.622 126.295-168.121 57.502-57.502 117.549-101.562 168.13-126.3-29.218-14.345-62.083-22.4-96.83-22.4-121.503 0-220 98.497-220 220 .001 34.699 8.049 67.573 22.405 96.821z" fill="#ff9eb1" data-original="#ff9eb1" className=""></path><path d="m326.881 32.45c-50.581 24.737-110.628 68.798-168.13 126.3-57.499 57.499-101.557 117.542-126.296 168.121 21.445 43.688 56.966 79.284 100.769 100.778 26.928 13.214 56.986 21.098 88.827 22.256v-107.853h197.354c20.061-33.916 30.644-72.597 30.644-112.002 0-34.747-8.055-67.612-22.4-96.83-21.47-43.734-57.034-79.298-100.768-100.77zm-35.231 159.771c0-22.091 17.909-40 40-40s40 17.909 40 40-17.909 40-40 40-40-17.909-40-40zm-135 77.2c13.696 0 24.8 11.103 24.8 24.8 0 13.696-11.103 24.8-24.8 24.8s-24.8-11.103-24.8-24.8c.001-13.697 11.104-24.8 24.8-24.8z" fill="#ff9eb1" data-original="#ff9eb1" className=""></path><ellipse cx="156.65" cy="294.221" fill="#ff5d7d" rx="24.8" ry="24.8" transform="matrix(.707 -.707 .707 .707 -162.164 196.944)" data-original="#ff5d7d" className=""></ellipse><ellipse cx="331.65" cy="192.221" fill="#ff5d7d" rx="40" ry="40" transform="matrix(.973 -.23 .23 .973 -35.292 81.34)" data-original="#ff5d7d" className=""></ellipse><path d="m419.407 342.052h-197.355v107.853 52.147h280v-160z" fill="#cbe558" data-original="#cbe558" className=""></path></g><g><path d="m362.052 472.052c16.542 0 30-13.458 30-30v-40c0-16.542-13.458-30-30-30s-30 13.458-30 30v40c0 16.543 13.458 30 30 30zm-10-70c0-5.514 4.486-10 10-10s10 4.486 10 10v40c0 5.514-4.486 10-10 10s-10-4.486-10-10z" fill="#000000" data-original="#000000" className=""></path><path d="m267.051 442.053h29.999v19.999c0 5.523 4.478 10 10 10s10-4.477 10-10v-80c0-5.523-4.478-10-10-10s-10 4.477-10 10v40.001h-19.999v-40.001c0-5.523-4.478-10-10-10s-10 4.477-10 10v50.001c0 5.523 4.478 10 10 10z" fill="#000000" data-original="#000000" className=""></path><path d="m417.053 442.053h30v19.999c0 5.523 4.478 10 10 10s10-4.477 10-10v-80c0-5.523-4.478-10-10-10s-10 4.477-10 10v40.001h-20v-40.001c0-5.523-4.478-10-10-10s-10 4.477-10 10v50.001c0 5.523 4.478 10 10 10z" fill="#000000" data-original="#000000" className=""></path><path d="m502.052 332.052h-65.859c15.642-31.635 23.858-66.632 23.858-102.002 0-34.03-7.341-66.932-21.273-96.897 25.779-54.614 28.061-96.58 6.406-118.235-20.529-20.53-58.009-19.858-108.386 1.946-3.245 1.405-6.529 2.892-9.849 4.46-29.965-13.933-62.867-21.274-96.898-21.274-61.436 0-119.193 23.924-162.635 67.366-43.441 43.441-67.365 101.199-67.365 162.634 0 34.517 7.626 67.333 21.319 96.803-1.585 3.352-3.087 6.667-4.505 9.943-21.805 50.376-22.479 87.856-1.947 108.387 9.838 9.838 23.861 14.734 41.364 14.734 21.046 0 47.12-7.086 76.96-21.182 24.229 11.251 50.784 18.422 78.81 20.611v42.706c0 5.523 4.477 10 10 10h280c5.522 0 10-4.477 10-10v-160c0-5.523-4.477-10-10-10zm-71.011-302.992c13.249 13.248 11.53 43.231-4.235 81.705-9.482-15.576-20.897-30.126-34.12-43.349-13.228-13.228-27.783-24.646-43.366-34.13 38.768-15.963 68.405-17.543 81.721-4.226zm-401.981 401.981c-13.326-13.326-11.734-42.995 4.259-81.801 19.193 31.622 45.812 58.292 77.515 77.538-38.507 15.791-68.519 17.521-81.774 4.263zm14.587-104.213c20.261-40.026 52.206-85.034 91.558-128.753 3.695-4.104 3.362-10.428-.743-14.123-4.104-3.694-10.427-3.363-14.123.743-35.945 39.934-65.975 81.093-87.014 118.956-8.587-22.936-13.274-47.745-13.274-73.601 0-115.794 94.206-210 210-210 25.868 0 50.659 4.702 73.563 13.295-37.852 21.038-78.995 51.059-118.915 86.99-4.105 3.695-4.438 10.018-.743 14.123 3.694 4.104 10.017 4.438 14.123.743 43.696-39.331 88.679-71.262 128.688-91.524 67.256 35.043 113.284 105.434 113.284 186.373 0 35.638-9.136 70.861-26.437 102.002h-191.562c-5.523 0-10 4.477-10 10v97.226c-73.73-6.305-136.129-50.4-168.405-112.45zm448.405 165.224h-260v-140h260z" fill="#000000" data-original="#000000" className=""></path><path d="m331.651 242.222c27.57 0 50-22.43 50-50s-22.43-50-50-50-50 22.43-50 50 22.429 50 50 50zm0-80.001c16.542 0 30 13.458 30 30s-13.458 30-30 30-30-13.458-30-30 13.458-30 30-30z" fill="#000000" data-original="#000000" className=""></path><path d="m156.651 259.421c-19.189 0-34.8 15.611-34.8 34.8s15.611 34.8 34.8 34.8c19.188 0 34.8-15.611 34.8-34.8s-15.612-34.8-34.8-34.8zm0 49.6c-8.161 0-14.8-6.639-14.8-14.8s6.64-14.8 14.8-14.8 14.8 6.639 14.8 14.8-6.64 14.8-14.8 14.8z" fill="#000000" data-original="#000000" className=""></path><path d="m158.758 168.75c5.523 0 10-4.477 10-10s-4.477-10-10-10h-.007c-5.523 0-9.996 4.477-9.996 10s4.48 10 10.003 10z" fill="#000000" data-original="#000000" className=""></path></g></g></g></svg>