<svg width="56" height="32" viewBox="0 0 56 32" fill="none" xmlns="http://www.w3.org/2000/svg">
<path fill-rule="evenodd" clip-rule="evenodd" d="M32.4374 6C33.0921 6 33.7197 6.26142 34.1781 6.72342L37.279 9.82432C37.7407 10.286 38.0001 10.9122 38.0001 11.5651C38.0001 12.218 37.7407 12.8442 37.279 13.3058L25.9575 24.6238C25.259 25.4295 24.2689 25.9245 23.1346 26.0023H18V25.0023L18.0032 20.7873C18.0884 19.7328 18.5787 18.7523 19.3265 18.0934L30.6954 6.72463C31.1564 6.26083 31.7834 6 32.4374 6ZM23.064 24.0048C23.5982 23.967 24.0955 23.7184 24.4948 23.2616L32.0567 15.6997L28.3023 11.9452L20.6961 19.5496C20.291 19.9079 20.0403 20.4092 20 20.8678V24.0029L23.064 24.0048ZM29.7167 10.5312L33.4709 14.2855L35.8648 11.8916C35.9514 11.805 36.0001 11.6876 36.0001 11.5651C36.0001 11.4426 35.9514 11.3251 35.8648 11.2385L32.7611 8.13486C32.6755 8.04855 32.5589 8 32.4374 8C32.3158 8 32.1992 8.04855 32.1136 8.13486L29.7167 10.5312Z" fill="black"/>
</svg>
