<svg xmlns="http://www.w3.org/2000/svg" version="1.1" xmlns:xlink="http://www.w3.org/1999/xlink" xmlns:svgjs="http://svgjs.com/svgjs" width="512" height="512" x="0" y="0" viewBox="0 0 48 48" style="enable-background:new 0 0 512 512" xml:space="preserve" className=""><g><g xmlns="http://www.w3.org/2000/svg" id="_23-sad" data-name="23-sad"><circle cx="24" cy="24" fill="#ffd364" r="23" data-original="#ffd364" className=""></circle><path d="m37 35.667a3.179 3.179 0 0 1 -3 3.333 3.179 3.179 0 0 1 -3-3.333c0-1.841 2.25-6.667 3-6.667s3 4.826 3 6.667z" fill="#3bc5f6" data-original="#3bc5f6"></path><g fill="#273941"><path d="m10 17v-2c3.722 0 6-1.295 6-2h2c0 2.626-4.024 4-8 4z" fill="#273941" data-original="#273941"></path><path d="m38 17c-3.976 0-8-1.374-8-4h2c0 .705 2.278 2 6 2z" fill="#273941" data-original="#273941"></path><path d="m24 35a10.343 10.343 0 0 0 -4 1 4 4 0 0 1 8 0 10.343 10.343 0 0 0 -4-1z" fill="#273941" data-original="#273941"></path><circle cx="34" cy="22" r="5" fill="#273941" data-original="#273941"></circle><circle cx="14" cy="22" r="5" fill="#273941" data-original="#273941"></circle><circle cx="34" cy="22" r="4" fill="#273941" data-original="#273941"></circle><circle cx="14" cy="22" r="4" fill="#273941" data-original="#273941"></circle></g><circle cx="35.5" cy="20.5" fill="#f6fafd" r="1.5" data-original="#f6fafd"></circle><circle cx="32.5" cy="23.5" fill="#f6fafd" r="1.5" data-original="#f6fafd"></circle><circle cx="35.5" cy="23.5" fill="#f6fafd" r=".5" data-original="#f6fafd"></circle><circle cx="12.5" cy="20.5" fill="#f6fafd" r="1.5" data-original="#f6fafd"></circle><circle cx="15.5" cy="23.5" fill="#f6fafd" r="1.5" data-original="#f6fafd"></circle><circle cx="12.5" cy="23.5" fill="#f6fafd" r=".5" data-original="#f6fafd"></circle><path d="m24 4c12.15 0 22 8.507 22 19h.975a23 23 0 0 0 -45.95 0h.975c0-10.493 9.85-19 22-19z" fill="#ffeb95" data-original="#ffeb95"></path><path d="m46 23c0 10.493-9.85 19-22 19s-22-8.507-22-19h-.975c-.014.332-.025.665-.025 1a23 23 0 0 0 46 0c0-.335-.011-.668-.025-1z" fill="#ffb839" data-original="#ffb839"></path><ellipse cx="37" cy="9" fill="#f6fafd" rx=".825" ry="1.148" transform="matrix(.707 -.707 .707 .707 4.48 28.81)" data-original="#f6fafd"></ellipse><ellipse cx="30.746" cy="4.5" fill="#f6fafd" rx=".413" ry=".574" transform="matrix(.707 -.707 .707 .707 5.829 23.067)" data-original="#f6fafd"></ellipse><ellipse cx="34" cy="7" fill="#f6fafd" rx="1.65" ry="2.297" transform="matrix(.707 -.707 .707 .707 5.015 26.102)" data-original="#f6fafd"></ellipse><path d="m34.135 29.047c.723.439 2.365 3.908 2.365 5.286a2.505 2.505 0 1 1 -5 0c0-1.378 1.642-4.847 2.365-5.286-.852.469-2.865 4.877-2.865 6.62a3.179 3.179 0 0 0 3 3.333 3.179 3.179 0 0 0 3-3.333c0-1.743-2.013-6.151-2.865-6.62z" fill="#00a3e1" data-original="#00a3e1"></path><ellipse cx="35" cy="35" fill="#f6fafd" rx=".825" ry="1.148" transform="matrix(.707 -.707 .707 .707 -14.497 35.017)" data-original="#f6fafd"></ellipse><ellipse cx="35.746" cy="33.5" fill="#f6fafd" rx=".413" ry=".574" transform="matrix(.707 -.707 .707 .707 -13.218 35.105)" data-original="#f6fafd"></ellipse><path d="m34 39a3.048 3.048 0 0 1 -2.853-2.354 4.808 4.808 0 0 0 -.147 1.021 3.179 3.179 0 0 0 3 3.333 3.179 3.179 0 0 0 3-3.333 4.808 4.808 0 0 0 -.147-1.021 3.048 3.048 0 0 1 -2.853 2.354z" fill="#ffb839" data-original="#ffb839"></path><path d="m24 48a24 24 0 1 1 24-24 24.028 24.028 0 0 1 -24 24zm0-46a22 22 0 1 0 22 22 22.025 22.025 0 0 0 -22-22z" fill="#141e21" data-original="#141e21" className=""></path><path d="m34 40a4.18 4.18 0 0 1 -4-4.333c0-1.535 2.134-7.667 4-7.667s4 6.132 4 7.667a4.18 4.18 0 0 1 -4 4.333zm0-9.6a15.136 15.136 0 0 0 -2 5.272 2.188 2.188 0 0 0 2 2.328 2.188 2.188 0 0 0 2-2.333 15.136 15.136 0 0 0 -2-5.267z" fill="#141e21" data-original="#141e21" className=""></path><path d="m10 17v-2c3.722 0 6-1.295 6-2h2c0 2.626-4.024 4-8 4z" fill="#141e21" data-original="#141e21" className=""></path><path d="m38 17c-3.976 0-8-1.374-8-4h2c0 .705 2.278 2 6 2z" fill="#141e21" data-original="#141e21" className=""></path><path d="m28 37a1.011 1.011 0 0 1 -.445-.1 9.355 9.355 0 0 0 -3.555-.9 9.355 9.355 0 0 0 -3.554.9 1 1 0 0 1 -1.446-.9 5 5 0 0 1 10 0 1 1 0 0 1 -1 1zm-4-3a9.428 9.428 0 0 1 2.527.386 3 3 0 0 0 -5.054 0 9.428 9.428 0 0 1 2.527-.386z" fill="#141e21" data-original="#141e21" className=""></path><path d="m34 27a5 5 0 1 1 5-5 5.006 5.006 0 0 1 -5 5zm0-8a3 3 0 1 0 3 3 3 3 0 0 0 -3-3z" fill="#141e21" data-original="#141e21" className=""></path><path d="m14 27a5 5 0 1 1 5-5 5.006 5.006 0 0 1 -5 5zm0-8a3 3 0 1 0 3 3 3 3 0 0 0 -3-3z" fill="#141e21" data-original="#141e21" className=""></path></g></g></svg>